<svg xmlns="http://www.w3.org/2000/svg" viewBox="0 0 1024 1024" preserveAspectRatio="xMidYMid meet">
  <g fill="#FFFFFF" fill-rule="evenodd" stroke="none">
    <path d="M 0 0 L 0 1 L 0 2 L 0 3 L 0 4 L 0 5 L 0 6 L 0 7 L 0 8 L 0 9 L 0 10 L 0 11 L 0 12 L 0 13 L 0 14 L 0 15 L 0 16 L 0 17 L 0 18 L 0 19 L 0 20 L 0 21 L 0 22 L 0 23 L 0 24 L 0 25 L 0 26 L 0 27 L 0 28 L 0 29 L 0 30 L 0 31 L 0 32 L 0 33 L 0 34 L 0 35 L 0 36 L 0 37 L 0 38 L 0 39 L 0 40 L 0 41 L 0 42 L 0 43 L 0 44 L 0 45 L 0 46 L 0 47 L 0 48 L 0 49 L 0 50 L 0 51 L 0 52 L 0 53 L 0 54 L 0 55 L 0 56 L 0 57 L 0 58 L 0 59 L 0 60 L 0 61 L 0 62 L 0 63 L 0 64 L 0 65 L 0 66 L 0 67 L 0 68 L 0 69 L 0 70 L 0 71 L 0 72 L 0 73 L 0 74 L 0 75 L 0 76 L 0 77 L 0 78 L 0 79 L 0 80 L 0 81 L 0 82 L 0 83 L 0 84 L 0 85 L 0 86 L 0 87 L 0 88 L 0 89 L 0 90 L 0 91 L 0 92 L 0 93 L 0 94 L 0 95 L 0 96 L 0 97 L 0 98 L 0 99 L 0 100 L 0 101 L 0 102 L 0 103 L 0 104 L 0 105 L 0 106 L 0 107 L 0 108 L 0 109 L 0 110 L 0 111 L 0 112 L 0 113 L 0 114 L 0 115 L 0 116 L 0 117 L 0 118 L 0 119 L 0 120 L 0 121 L 0 122 L 0 123 L 0 124 L 0 125 L 0 126 L 0 127 L 0 128 L 0 129 L 0 130 L 0 131 L 0 132 L 0 133 L 0 134 L 0 135 L 0 136 L 0 137 L 0 138 L 0 139 L 0 140 L 0 141 L 0 142 L 0 143 L 0 144 L 0 145 L 0 146 L 0 147 L 0 148 L 0 149 L 0 150 L 0 151 L 0 152 L 0 153 L 0 154 L 0 155 L 0 156 L 0 157 L 0 158 L 0 159 L 0 160 L 0 161 L 0 162 L 0 163 L 0 164 L 0 165 L 0 166 L 0 167 L 0 168 L 0 169 L 0 170 L 0 171 L 0 172 L 0 173 L 0 174 L 0 175 L 0 176 L 0 177 L 0 178 L 0 179 L 0 180 L 0 181 L 0 182 L 0 183 L 0 184 L 0 185 L 0 186 L 0 187 L 0 188 L 0 189 L 0 190 L 0 191 L 0 192 L 0 193 L 0 194 L 0 195 L 0 196 L 0 197 L 0 198 L 0 199 L 0 200 L 0 201 L 0 202 L 0 203 L 0 204 L 0 205 L 0 206 L 0 207 L 0 208 L 0 209 L 0 210 L 0 211 L 0 212 L 0 213 L 0 214 L 0 215 L 0 216 L 0 217 L 0 218 L 0 219 L 0 220 L 0 221 L 0 222 L 0 223 L 0 224 L 0 225 L 0 226 L 0 227 L 0 228 L 0 229 L 0 230 L 0 231 L 0 232 L 0 233 L 0 234 L 0 235 L 0 236 L 0 237 L 0 238 L 0 239 L 0 240 L 0 241 L 0 242 L 0 243 L 0 244 L 0 245 L 0 246 L 0 247 L 0 248 L 0 249 L 0 250 L 0 251 L 0 252 L 0 253 L 0 254 L 0 255 L 0 256 L 0 257 L 0 258 L 0 259 L 0 260 L 0 261 L 0 262 L 0 263 L 0 264 L 0 265 L 0 266 L 0 267 L 0 268 L 0 269 L 0 270 L 0 271 L 0 272 L 0 273 L 0 274 L 0 275 L 0 276 L 0 277 L 0 278 L 0 279 L 0 280 L 0 281 L 0 282 L 0 283 L 0 284 L 0 285 L 0 286 L 0 287 L 0 288 L 0 289 L 0 290 L 0 291 L 0 292 L 0 293 L 0 294 L 0 295 L 0 296 L 0 297 L 0 298 L 0 299 L 0 300 L 0 301 L 0 302 L 0 303 L 0 304 L 0 305 L 0 306 L 0 307 L 0 308 L 0 309 L 0 310 L 0 311 L 0 312 L 0 313 L 0 314 L 0 315 L 0 316 L 0 317 L 0 318 L 0 319 L 0 320 L 0 321 L 0 322 L 0 323 L 0 324 L 0 325 L 0 326 L 0 327 L 0 328 L 0 329 L 0 330 L 0 331 L 0 332 L 0 333 L 0 334 L 0 335 L 0 336 L 0 337 L 0 338 L 0 339 L 0 340 L 0 341 L 0 342 L 0 343 L 0 344 L 0 345 L 0 346 L 0 347 L 0 348 L 0 349 L 0 350 L 0 351 L 0 352 L 0 353 L 0 354 L 0 355 L 0 356 L 0 357 L 0 358 L 0 359 L 0 360 L 0 361 L 0 362 L 0 363 L 0 364 L 0 365 L 0 366 L 0 367 L 0 368 L 0 369 L 0 370 L 0 371 L 0 372 L 0 373 L 0 374 L 0 375 L 0 376 L 0 377 L 0 378 L 0 379 L 0 380 L 0 381 L 0 382 L 0 383 L 0 384 L 0 385 L 0 386 L 0 387 L 0 388 L 0 389 L 0 390 L 0 391 L 0 392 L 0 393 L 0 394 L 0 395 L 0 396 L 0 397 L 0 398 L 0 399 L 0 400 L 0 401 L 0 402 L 0 403 L 0 404 L 0 405 L 0 406 L 0 407 L 0 408 L 0 409 L 0 410 L 0 411 L 0 412 L 0 413 L 0 414 L 0 415 L 0 416 L 0 417 L 0 418 L 0 419 L 0 420 L 0 421 L 0 422 L 0 423 L 0 424 L 0 425 L 0 426 L 0 427 L 0 428 L 0 429 L 0 430 L 0 431 L 0 432 L 0 433 L 0 434 L 0 435 L 0 436 L 0 437 L 0 438 L 0 439 L 0 440 L 0 441 L 0 442 L 0 443 L 0 444 L 0 445 L 0 446 L 0 447 L 0 448 L 0 449 L 0 450 L 0 451 L 0 452 L 0 453 L 0 454 L 0 455 L 0 456 L 0 457 L 0 458 L 0 459 L 0 460 L 0 461 L 0 462 L 0 463 L 0 464 L 0 465 L 0 466 L 0 467 L 0 468 L 0 469 L 0 470 L 0 471 L 0 472 L 0 473 L 0 474 L 0 475 L 0 476 L 0 477 L 0 478 L 0 479 L 0 480 L 0 481 L 0 482 L 0 483 L 0 484 L 0 485 L 0 486 L 0 487 L 0 488 L 0 489 L 0 490 L 0 491 L 0 492 L 0 493 L 0 494 L 0 495 L 0 496 L 0 497 L 0 498 L 0 499 L 0 500 L 0 501 L 0 502 L 0 503 L 0 504 L 0 505 L 0 506 L 0 507 L 0 508 L 0 509 L 0 510 L 0 511 L 0 512 L 0 513 L 0 514 L 0 515 L 0 516 L 0 517 L 0 518 L 0 519 L 0 520 L 0 521 L 0 522 L 0 523 L 0 524 L 0 525 L 0 526 L 0 527 L 0 528 L 0 529 L 0 530 L 0 531 L 0 532 L 0 533 L 0 534 L 0 535 L 0 536 L 0 537 L 0 538 L 0 539 L 0 540 L 0 541 L 0 542 L 0 543 L 0 544 L 0 545 L 0 546 L 0 547 L 0 548 L 0 549 L 0 550 L 0 551 L 0 552 L 0 553 L 0 554 L 0 555 L 0 556 L 0 557 L 0 558 L 0 559 L 0 560 L 0 561 L 0 562 L 0 563 L 0 564 L 0 565 L 0 566 L 0 567 L 0 568 L 0 569 L 0 570 L 0 571 L 0 572 L 0 573 L 0 574 L 0 575 L 0 576 L 0 577 L 0 578 L 0 579 L 0 580 L 0 581 L 0 582 L 0 583 L 0 584 L 0 585 L 0 586 L 0 587 L 0 588 L 0 589 L 0 590 L 0 591 L 0 592 L 0 593 L 0 594 L 0 595 L 0 596 L 0 597 L 0 598 L 0 599 L 0 600 L 0 601 L 0 602 L 0 603 L 0 604 L 0 605 L 0 606 L 0 607 L 0 608 L 0 609 L 0 610 L 0 611 L 0 612 L 0 613 L 0 614 L 0 615 L 0 616 L 0 617 L 0 618 L 0 619 L 0 620 L 0 621 L 0 622 L 0 623 L 0 624 L 0 625 L 0 626 L 0 627 L 0 628 L 0 629 L 0 630 L 0 631 L 0 632 L 0 633 L 0 634 L 0 635 L 0 636 L 0 637 L 0 638 L 0 639 L 0 640 L 0 641 L 0 642 L 0 643 L 0 644 L 0 645 L 0 646 L 0 647 L 0 648 L 0 649 L 0 650 L 0 651 L 0 652 L 0 653 L 0 654 L 0 655 L 0 656 L 0 657 L 0 658 L 0 659 L 0 660 L 0 661 L 0 662 L 0 663 L 0 664 L 0 665 L 0 666 L 0 667 L 0 668 L 0 669 L 0 670 L 0 671 L 0 672 L 0 673 L 0 674 L 0 675 L 0 676 L 0 677 L 0 678 L 0 679 L 0 680 L 0 681 L 0 682 L 0 683 L 0 684 L 0 685 L 0 686 L 0 687 L 0 688 L 0 689 L 0 690 L 0 691 L 0 692 L 0 693 L 0 694 L 0 695 L 0 696 L 0 697 L 0 698 L 0 699 L 0 700 L 0 701 L 0 702 L 0 703 L 0 704 L 0 705 L 0 706 L 0 707 L 0 708 L 0 709 L 0 710 L 0 711 L 0 712 L 0 713 L 0 714 L 0 715 L 0 716 L 0 717 L 0 718 L 0 719 L 0 720 L 0 721 L 0 722 L 0 723 L 0 724 L 0 725 L 0 726 L 0 727 L 0 728 L 0 729 L 0 730 L 0 731 L 0 732 L 0 733 L 0 734 L 0 735 L 0 736 L 0 737 L 0 738 L 0 739 L 0 740 L 0 741 L 0 742 L 0 743 L 0 744 L 0 745 L 0 746 L 0 747 L 0 748 L 0 749 L 0 750 L 0 751 L 0 752 L 0 753 L 0 754 L 0 755 L 0 756 L 0 757 L 0 758 L 0 759 L 0 760 L 0 761 L 0 762 L 0 763 L 0 764 L 0 765 L 0 766 L 0 767 L 0 768 L 0 769 L 0 770 L 0 771 L 0 772 L 0 773 L 0 774 L 0 775 L 0 776 L 0 777 L 0 778 L 0 779 L 0 780 L 0 781 L 0 782 L 0 783 L 0 784 L 0 785 L 0 786 L 0 787 L 0 788 L 0 789 L 0 790 L 0 791 L 0 792 L 0 793 L 0 794 L 0 795 L 0 796 L 0 797 L 0 798 L 0 799 L 0 800 L 0 801 L 0 802 L 0 803 L 0 804 L 0 805 L 0 806 L 0 807 L 0 808 L 0 809 L 0 810 L 0 811 L 0 812 L 0 813 L 0 814 L 0 815 L 0 816 L 0 817 L 0 818 L 0 819 L 0 820 L 0 821 L 0 822 L 0 823 L 0 824 L 0 825 L 0 826 L 0 827 L 0 828 L 0 829 L 0 830 L 0 831 L 0 832 L 0 833 L 0 834 L 0 835 L 0 836 L 0 837 L 0 838 L 0 839 L 0 840 L 0 841 L 0 842 L 0 843 L 0 844 L 0 845 L 0 846 L 0 847 L 0 848 L 0 849 L 0 850 L 0 851 L 0 852 L 0 853 L 0 854 L 0 855 L 0 856 L 0 857 L 0 858 L 0 859 L 0 860 L 0 861 L 0 862 L 0 863 L 0 864 L 0 865 L 0 866 L 0 867 L 0 868 L 0 869 L 0 870 L 0 871 L 0 872 L 0 873 L 0 874 L 0 875 L 0 876 L 0 877 L 0 878 L 0 879 L 0 880 L 0 881 L 0 882 L 0 883 L 0 884 L 0 885 L 0 886 L 0 887 L 0 888 L 0 889 L 0 890 L 0 891 L 0 892 L 0 893 L 0 894 L 0 895 L 0 896 L 0 897 L 0 898 L 0 899 L 0 900 L 0 901 L 0 902 L 0 903 L 0 904 L 0 905 L 0 906 L 0 907 L 0 908 L 0 909 L 0 910 L 0 911 L 0 912 L 0 913 L 0 914 L 0 915 L 0 916 L 0 917 L 0 918 L 0 919 L 0 920 L 0 921 L 0 922 L 0 923 L 0 924 L 0 925 L 0 926 L 0 927 L 0 928 L 0 929 L 0 930 L 0 931 L 0 932 L 0 933 L 0 934 L 0 935 L 0 936 L 0 937 L 0 938 L 0 939 L 0 940 L 0 941 L 0 942 L 0 943 L 0 944 L 0 945 L 0 946 L 0 947 L 0 948 L 0 949 L 0 950 L 0 951 L 0 952 L 0 953 L 0 954 L 0 955 L 0 956 L 0 957 L 0 958 L 0 959 L 0 960 L 0 961 L 0 962 L 0 963 L 0 964 L 0 965 L 0 966 L 0 967 L 0 968 L 0 969 L 0 970 L 0 971 L 0 972 L 0 973 L 0 974 L 0 975 L 0 976 L 0 977 L 0 978 L 0 979 L 0 980 L 0 981 L 0 982 L 0 983 L 0 984 L 0 985 L 0 986 L 0 987 L 0 988 L 0 989 L 0 990 L 0 991 L 0 992 L 0 993 L 0 994 L 0 995 L 0 996 L 0 997 L 0 998 L 0 999 L 0 1000 L 0 1001 L 0 1002 L 0 1003 L 0 1004 L 0 1005 L 0 1006 L 0 1007 L 0 1008 L 0 1009 L 0 1010 L 0 1011 L 0 1012 L 0 1013 L 0 1014 L 0 1015 L 0 1016 L 0 1017 L 0 1018 L 0 1019 L 0 1020 L 0 1021 L 0 1022 L 0 1023 L 1 1023 L 2 1023 L 3 1023 L 4 1023 L 5 1023 L 6 1023 L 7 1023 L 8 1023 L 9 1023 L 10 1023 L 11 1023 L 12 1023 L 13 1023 L 14 1023 L 15 1023 L 16 1023 L 17 1023 L 18 1023 L 19 1023 L 20 1023 L 21 1023 L 22 1023 L 23 1023 L 24 1023 L 25 1023 L 26 1023 L 27 1023 L 28 1023 L 29 1023 L 30 1023 L 31 1023 L 32 1023 L 33 1023 L 34 1023 L 35 1023 L 36 1023 L 37 1023 L 38 1023 L 39 1023 L 40 1023 L 41 1023 L 42 1023 L 43 1023 L 44 1023 L 45 1023 L 46 1023 L 47 1023 L 48 1023 L 49 1023 L 50 1023 L 51 1023 L 52 1023 L 53 1023 L 54 1023 L 55 1023 L 56 1023 L 57 1023 L 58 1023 L 59 1023 L 60 1023 L 61 1023 L 62 1023 L 63 1023 L 64 1023 L 65 1023 L 66 1023 L 67 1023 L 68 1023 L 69 1023 L 70 1023 L 71 1023 L 72 1023 L 73 1023 L 74 1023 L 75 1023 L 76 1023 L 77 1023 L 78 1023 L 79 1023 L 80 1023 L 81 1023 L 82 1023 L 83 1023 L 84 1023 L 85 1023 L 86 1023 L 87 1023 L 88 1023 L 89 1023 L 90 1023 L 91 1023 L 92 1023 L 93 1023 L 94 1023 L 95 1023 L 96 1023 L 97 1023 L 98 1023 L 99 1023 L 100 1023 L 101 1023 L 102 1023 L 103 1023 L 104 1023 L 105 1023 L 106 1023 L 107 1023 L 108 1023 L 109 1023 L 110 1023 L 111 1023 L 112 1023 L 113 1023 L 114 1023 L 115 1023 L 116 1023 L 117 1023 L 118 1023 L 119 1023 L 120 1023 L 121 1023 L 122 1023 L 123 1023 L 124 1023 L 125 1023 L 126 1023 L 127 1023 L 128 1023 L 129 1023 L 130 1023 L 131 1023 L 132 1023 L 133 1023 L 134 1023 L 135 1023 L 136 1023 L 137 1023 L 138 1023 L 139 1023 L 140 1023 L 141 1023 L 142 1023 L 143 1023 L 144 1023 L 145 1023 L 146 1023 L 147 1023 L 148 1023 L 149 1023 L 150 1023 L 151 1023 L 152 1023 L 153 1023 L 154 1023 L 155 1023 L 156 1023 L 157 1023 L 158 1023 L 159 1023 L 160 1023 L 161 1023 L 162 1023 L 163 1023 L 164 1023 L 165 1023 L 166 1023 L 167 1023 L 168 1023 L 169 1023 L 170 1023 L 171 1023 L 172 1023 L 173 1023 L 174 1023 L 175 1023 L 176 1023 L 177 1023 L 178 1023 L 179 1023 L 180 1023 L 181 1023 L 182 1023 L 183 1023 L 184 1023 L 185 1023 L 186 1023 L 187 1023 L 188 1023 L 189 1023 L 190 1023 L 191 1023 L 192 1023 L 193 1023 L 194 1023 L 195 1023 L 196 1023 L 197 1023 L 198 1023 L 199 1023 L 200 1023 L 201 1023 L 202 1023 L 203 1023 L 204 1023 L 205 1023 L 206 1023 L 207 1023 L 208 1023 L 209 1023 L 210 1023 L 211 1023 L 212 1023 L 213 1023 L 214 1023 L 215 1023 L 216 1023 L 217 1023 L 218 1023 L 219 1023 L 220 1023 L 221 1023 L 222 1023 L 223 1023 L 224 1023 L 225 1023 L 226 1023 L 227 1023 L 228 1023 L 229 1023 L 230 1023 L 231 1023 L 232 1023 L 233 1023 L 234 1023 L 235 1023 L 236 1023 L 237 1023 L 238 1023 L 239 1023 L 240 1023 L 241 1023 L 242 1023 L 243 1023 L 244 1023 L 245 1023 L 246 1023 L 247 1023 L 248 1023 L 249 1023 L 250 1023 L 251 1023 L 252 1023 L 253 1023 L 254 1023 L 255 1023 L 256 1023 L 257 1023 L 258 1023 L 259 1023 L 260 1023 L 261 1023 L 262 1023 L 263 1023 L 264 1023 L 265 1023 L 266 1023 L 267 1023 L 268 1023 L 269 1023 L 270 1023 L 271 1023 L 272 1023 L 273 1023 L 274 1023 L 275 1023 L 276 1023 L 277 1023 L 278 1023 L 279 1023 L 280 1023 L 281 1023 L 282 1023 L 283 1023 L 284 1023 L 285 1023 L 286 1023 L 287 1023 L 288 1023 L 289 1023 L 290 1023 L 291 1023 L 292 1023 L 293 1023 L 294 1023 L 295 1023 L 296 1023 L 297 1023 L 298 1023 L 299 1023 L 300 1023 L 301 1023 L 302 1023 L 303 1023 L 304 1023 L 305 1023 L 306 1023 L 307 1023 L 308 1023 L 309 1023 L 310 1023 L 311 1023 L 312 1023 L 313 1023 L 314 1023 L 315 1023 L 316 1023 L 317 1023 L 318 1023 L 319 1023 L 320 1023 L 321 1023 L 322 1023 L 323 1023 L 324 1023 L 325 1023 L 326 1023 L 327 1023 L 328 1023 L 329 1023 L 330 1023 L 331 1023 L 332 1023 L 333 1023 L 334 1023 L 335 1023 L 336 1023 L 337 1023 L 338 1023 L 339 1023 L 340 1023 L 341 1023 L 342 1023 L 343 1023 L 344 1023 L 345 1023 L 346 1023 L 347 1023 L 348 1023 L 349 1023 L 350 1023 L 351 1023 L 352 1023 L 353 1023 L 354 1023 L 355 1023 L 356 1023 L 357 1023 L 358 1023 L 359 1023 L 360 1023 L 361 1023 L 362 1023 L 363 1023 L 364 1023 L 365 1023 L 366 1023 L 367 1023 L 368 1023 L 369 1023 L 370 1023 L 371 1023 L 372 1023 L 373 1023 L 374 1023 L 375 1023 L 376 1023 L 377 1023 L 378 1023 L 379 1023 L 380 1023 L 381 1023 L 382 1023 L 383 1023 L 384 1023 L 385 1023 L 386 1023 L 387 1023 L 388 1023 L 389 1023 L 390 1023 L 391 1023 L 392 1023 L 393 1023 L 394 1023 L 395 1023 L 396 1023 L 397 1023 L 398 1023 L 399 1023 L 400 1023 L 401 1023 L 402 1023 L 403 1023 L 404 1023 L 405 1023 L 406 1023 L 407 1023 L 408 1023 L 409 1023 L 410 1023 L 411 1023 L 412 1023 L 413 1023 L 414 1023 L 415 1023 L 416 1023 L 417 1023 L 418 1023 L 419 1023 L 420 1023 L 421 1023 L 422 1023 L 423 1023 L 424 1023 L 425 1023 L 426 1023 L 427 1023 L 428 1023 L 429 1023 L 430 1023 L 431 1023 L 432 1023 L 433 1023 L 434 1023 L 435 1023 L 436 1023 L 437 1023 L 438 1023 L 439 1023 L 440 1023 L 441 1023 L 442 1023 L 443 1023 L 444 1023 L 445 1023 L 446 1023 L 447 1023 L 448 1023 L 449 1023 L 450 1023 L 451 1023 L 452 1023 L 453 1023 L 454 1023 L 455 1023 L 456 1023 L 457 1023 L 458 1023 L 459 1023 L 460 1023 L 461 1023 L 462 1023 L 463 1023 L 464 1023 L 465 1023 L 466 1023 L 467 1023 L 468 1023 L 469 1023 L 470 1023 L 471 1023 L 472 1023 L 473 1023 L 474 1023 L 475 1023 L 476 1023 L 477 1023 L 478 1023 L 479 1023 L 480 1023 L 481 1023 L 482 1023 L 483 1023 L 484 1023 L 485 1023 L 486 1023 L 487 1023 L 488 1023 L 489 1023 L 490 1023 L 491 1023 L 492 1023 L 493 1023 L 494 1023 L 495 1023 L 496 1023 L 497 1023 L 498 1023 L 499 1023 L 500 1023 L 501 1023 L 502 1023 L 503 1023 L 504 1023 L 505 1023 L 506 1023 L 507 1023 L 508 1023 L 509 1023 L 510 1023 L 511 1023 L 512 1023 L 513 1023 L 514 1023 L 515 1023 L 516 1023 L 517 1023 L 518 1023 L 519 1023 L 520 1023 L 521 1023 L 522 1023 L 523 1023 L 524 1023 L 525 1023 L 526 1023 L 527 1023 L 528 1023 L 529 1023 L 530 1023 L 531 1023 L 532 1023 L 533 1023 L 534 1023 L 535 1023 L 536 1023 L 537 1023 L 538 1023 L 539 1023 L 540 1023 L 541 1023 L 542 1023 L 543 1023 L 544 1023 L 545 1023 L 546 1023 L 547 1023 L 548 1023 L 549 1023 L 550 1023 L 551 1023 L 552 1023 L 553 1023 L 554 1023 L 555 1023 L 556 1023 L 557 1023 L 558 1023 L 559 1023 L 560 1023 L 561 1023 L 562 1023 L 563 1023 L 564 1023 L 565 1023 L 566 1023 L 567 1023 L 568 1023 L 569 1023 L 570 1023 L 571 1023 L 572 1023 L 573 1023 L 574 1023 L 575 1023 L 576 1023 L 577 1023 L 578 1023 L 579 1023 L 580 1023 L 581 1023 L 582 1023 L 583 1023 L 584 1023 L 585 1023 L 586 1023 L 587 1023 L 588 1023 L 589 1023 L 590 1023 L 591 1023 L 592 1023 L 593 1023 L 594 1023 L 595 1023 L 596 1023 L 597 1023 L 598 1023 L 599 1023 L 600 1023 L 601 1023 L 602 1023 L 603 1023 L 604 1023 L 605 1023 L 606 1023 L 607 1023 L 608 1023 L 609 1023 L 610 1023 L 611 1023 L 612 1023 L 613 1023 L 614 1023 L 615 1023 L 616 1023 L 617 1023 L 618 1023 L 619 1023 L 620 1023 L 621 1023 L 622 1023 L 623 1023 L 624 1023 L 625 1023 L 626 1023 L 627 1023 L 628 1023 L 629 1023 L 630 1023 L 631 1023 L 632 1023 L 633 1023 L 634 1023 L 635 1023 L 636 1023 L 637 1023 L 638 1023 L 639 1023 L 640 1023 L 641 1023 L 642 1023 L 643 1023 L 644 1023 L 645 1023 L 646 1023 L 647 1023 L 648 1023 L 649 1023 L 650 1023 L 651 1023 L 652 1023 L 653 1023 L 654 1023 L 655 1023 L 656 1023 L 657 1023 L 658 1023 L 659 1023 L 660 1023 L 661 1023 L 662 1023 L 663 1023 L 664 1023 L 665 1023 L 666 1023 L 667 1023 L 668 1023 L 669 1023 L 670 1023 L 671 1023 L 672 1023 L 673 1023 L 674 1023 L 675 1023 L 676 1023 L 677 1023 L 678 1023 L 679 1023 L 680 1023 L 681 1023 L 682 1023 L 683 1023 L 684 1023 L 685 1023 L 686 1023 L 687 1023 L 688 1023 L 689 1023 L 690 1023 L 691 1023 L 692 1023 L 693 1023 L 694 1023 L 695 1023 L 696 1023 L 697 1023 L 698 1023 L 699 1023 L 700 1023 L 701 1023 L 702 1023 L 703 1023 L 704 1023 L 705 1023 L 706 1023 L 707 1023 L 708 1023 L 709 1023 L 710 1023 L 711 1023 L 712 1023 L 713 1023 L 714 1023 L 715 1023 L 716 1023 L 717 1023 L 718 1023 L 719 1023 L 720 1023 L 721 1023 L 722 1023 L 723 1023 L 724 1023 L 725 1023 L 726 1023 L 727 1023 L 728 1023 L 729 1023 L 730 1023 L 731 1023 L 732 1023 L 733 1023 L 734 1023 L 735 1023 L 736 1023 L 737 1023 L 738 1023 L 739 1023 L 740 1023 L 741 1023 L 742 1023 L 743 1023 L 744 1023 L 745 1023 L 746 1023 L 747 1023 L 748 1023 L 749 1023 L 750 1023 L 751 1023 L 752 1023 L 753 1023 L 754 1023 L 755 1023 L 756 1023 L 757 1023 L 758 1023 L 759 1023 L 760 1023 L 761 1023 L 762 1023 L 763 1023 L 764 1023 L 765 1023 L 766 1023 L 767 1023 L 768 1023 L 769 1023 L 770 1023 L 771 1023 L 772 1023 L 773 1023 L 774 1023 L 775 1023 L 776 1023 L 777 1023 L 778 1023 L 779 1023 L 780 1023 L 781 1023 L 782 1023 L 783 1023 L 784 1023 L 785 1023 L 786 1023 L 787 1023 L 788 1023 L 789 1023 L 790 1023 L 791 1023 L 792 1023 L 793 1023 L 794 1023 L 795 1023 L 796 1023 L 797 1023 L 798 1023 L 799 1023 L 800 1023 L 801 1023 L 802 1023 L 803 1023 L 804 1023 L 805 1023 L 806 1023 L 807 1023 L 808 1023 L 809 1023 L 810 1023 L 811 1023 L 812 1023 L 813 1023 L 814 1023 L 815 1023 L 816 1023 L 817 1023 L 818 1023 L 819 1023 L 820 1023 L 821 1023 L 822 1023 L 823 1023 L 824 1023 L 825 1023 L 826 1023 L 827 1023 L 828 1023 L 829 1023 L 830 1023 L 831 1023 L 832 1023 L 833 1023 L 834 1023 L 835 1023 L 836 1023 L 837 1023 L 838 1023 L 839 1023 L 840 1023 L 841 1023 L 842 1023 L 843 1023 L 844 1023 L 845 1023 L 846 1023 L 847 1023 L 848 1023 L 849 1023 L 850 1023 L 851 1023 L 852 1023 L 853 1023 L 854 1023 L 855 1023 L 856 1023 L 857 1023 L 858 1023 L 859 1023 L 860 1023 L 861 1023 L 862 1023 L 863 1023 L 864 1023 L 865 1023 L 866 1023 L 867 1023 L 868 1023 L 869 1023 L 870 1023 L 871 1023 L 872 1023 L 873 1023 L 874 1023 L 875 1023 L 876 1023 L 877 1023 L 878 1023 L 879 1023 L 880 1023 L 881 1023 L 882 1023 L 883 1023 L 884 1023 L 885 1023 L 886 1023 L 887 1023 L 888 1023 L 889 1023 L 890 1023 L 891 1023 L 892 1023 L 893 1023 L 894 1023 L 895 1023 L 896 1023 L 897 1023 L 898 1023 L 899 1023 L 900 1023 L 901 1023 L 902 1023 L 903 1023 L 904 1023 L 905 1023 L 906 1023 L 907 1023 L 908 1023 L 909 1023 L 910 1023 L 911 1023 L 912 1023 L 913 1023 L 914 1023 L 915 1023 L 916 1023 L 917 1023 L 918 1023 L 919 1023 L 920 1023 L 921 1023 L 922 1023 L 923 1023 L 924 1023 L 925 1023 L 926 1023 L 927 1023 L 928 1023 L 929 1023 L 930 1023 L 931 1023 L 932 1023 L 933 1023 L 934 1023 L 935 1023 L 936 1023 L 937 1023 L 938 1023 L 939 1023 L 940 1023 L 941 1023 L 942 1023 L 943 1023 L 944 1023 L 945 1023 L 946 1023 L 947 1023 L 948 1023 L 949 1023 L 950 1023 L 951 1023 L 952 1023 L 953 1023 L 954 1023 L 955 1023 L 956 1023 L 957 1023 L 958 1023 L 959 1023 L 960 1023 L 961 1023 L 962 1023 L 963 1023 L 964 1023 L 965 1023 L 966 1023 L 967 1023 L 968 1023 L 969 1023 L 970 1023 L 971 1023 L 972 1023 L 973 1023 L 974 1023 L 975 1023 L 976 1023 L 977 1023 L 978 1023 L 979 1023 L 980 1023 L 981 1023 L 982 1023 L 983 1023 L 984 1023 L 985 1023 L 986 1023 L 987 1023 L 988 1023 L 989 1023 L 990 1023 L 991 1023 L 992 1023 L 993 1023 L 994 1023 L 995 1023 L 996 1023 L 997 1023 L 998 1023 L 999 1023 L 1000 1023 L 1001 1023 L 1002 1023 L 1003 1023 L 1004 1023 L 1005 1023 L 1006 1023 L 1007 1023 L 1008 1023 L 1009 1023 L 1010 1023 L 1011 1023 L 1012 1023 L 1013 1023 L 1014 1023 L 1015 1023 L 1016 1023 L 1017 1023 L 1018 1023 L 1019 1023 L 1020 1023 L 1021 1023 L 1022 1023 L 1023 1023 L 1023 1022 L 1023 1021 L 1023 1020 L 1023 1019 L 1023 1018 L 1023 1017 L 1023 1016 L 1023 1015 L 1023 1014 L 1023 1013 L 1023 1012 L 1023 1011 L 1023 1010 L 1023 1009 L 1023 1008 L 1023 1007 L 1023 1006 L 1023 1005 L 1023 1004 L 1023 1003 L 1023 1002 L 1023 1001 L 1023 1000 L 1023 999 L 1023 998 L 1023 997 L 1023 996 L 1023 995 L 1023 994 L 1023 993 L 1023 992 L 1023 991 L 1023 990 L 1023 989 L 1023 988 L 1023 987 L 1023 986 L 1023 985 L 1023 984 L 1023 983 L 1023 982 L 1023 981 L 1023 980 L 1023 979 L 1023 978 L 1023 977 L 1023 976 L 1023 975 L 1023 974 L 1023 973 L 1023 972 L 1023 971 L 1023 970 L 1023 969 L 1023 968 L 1023 967 L 1023 966 L 1023 965 L 1023 964 L 1023 963 L 1023 962 L 1023 961 L 1023 960 L 1023 959 L 1023 958 L 1023 957 L 1023 956 L 1023 955 L 1023 954 L 1023 953 L 1023 952 L 1023 951 L 1023 950 L 1023 949 L 1023 948 L 1023 947 L 1023 946 L 1023 945 L 1023 944 L 1023 943 L 1023 942 L 1023 941 L 1023 940 L 1023 939 L 1023 938 L 1023 937 L 1023 936 L 1023 935 L 1023 934 L 1023 933 L 1023 932 L 1023 931 L 1023 930 L 1023 929 L 1023 928 L 1023 927 L 1023 926 L 1023 925 L 1023 924 L 1023 923 L 1023 922 L 1023 921 L 1023 920 L 1023 919 L 1023 918 L 1023 917 L 1023 916 L 1023 915 L 1023 914 L 1023 913 L 1023 912 L 1023 911 L 1023 910 L 1023 909 L 1023 908 L 1023 907 L 1023 906 L 1023 905 L 1023 904 L 1023 903 L 1023 902 L 1023 901 L 1023 900 L 1023 899 L 1023 898 L 1023 897 L 1023 896 L 1023 895 L 1023 894 L 1023 893 L 1023 892 L 1023 891 L 1023 890 L 1023 889 L 1023 888 L 1023 887 L 1023 886 L 1023 885 L 1023 884 L 1023 883 L 1023 882 L 1023 881 L 1023 880 L 1023 879 L 1023 878 L 1023 877 L 1023 876 L 1023 875 L 1023 874 L 1023 873 L 1023 872 L 1023 871 L 1023 870 L 1023 869 L 1023 868 L 1023 867 L 1023 866 L 1023 865 L 1023 864 L 1023 863 L 1023 862 L 1023 861 L 1023 860 L 1023 859 L 1023 858 L 1023 857 L 1023 856 L 1023 855 L 1023 854 L 1023 853 L 1023 852 L 1023 851 L 1023 850 L 1023 849 L 1023 848 L 1023 847 L 1023 846 L 1023 845 L 1023 844 L 1023 843 L 1023 842 L 1023 841 L 1023 840 L 1023 839 L 1023 838 L 1023 837 L 1023 836 L 1023 835 L 1023 834 L 1023 833 L 1023 832 L 1023 831 L 1023 830 L 1023 829 L 1023 828 L 1023 827 L 1023 826 L 1023 825 L 1023 824 L 1023 823 L 1023 822 L 1023 821 L 1023 820 L 1023 819 L 1023 818 L 1023 817 L 1023 816 L 1023 815 L 1023 814 L 1023 813 L 1023 812 L 1023 811 L 1023 810 L 1023 809 L 1023 808 L 1023 807 L 1023 806 L 1023 805 L 1023 804 L 1023 803 L 1023 802 L 1023 801 L 1023 800 L 1023 799 L 1023 798 L 1023 797 L 1023 796 L 1023 795 L 1023 794 L 1023 793 L 1023 792 L 1023 791 L 1023 790 L 1023 789 L 1023 788 L 1023 787 L 1023 786 L 1023 785 L 1023 784 L 1023 783 L 1023 782 L 1023 781 L 1023 780 L 1023 779 L 1023 778 L 1023 777 L 1023 776 L 1023 775 L 1023 774 L 1023 773 L 1023 772 L 1023 771 L 1023 770 L 1023 769 L 1023 768 L 1023 767 L 1023 766 L 1023 765 L 1023 764 L 1023 763 L 1023 762 L 1023 761 L 1023 760 L 1023 759 L 1023 758 L 1023 757 L 1023 756 L 1023 755 L 1023 754 L 1023 753 L 1023 752 L 1023 751 L 1023 750 L 1023 749 L 1023 748 L 1023 747 L 1023 746 L 1023 745 L 1023 744 L 1023 743 L 1023 742 L 1023 741 L 1023 740 L 1023 739 L 1023 738 L 1023 737 L 1023 736 L 1023 735 L 1023 734 L 1023 733 L 1023 732 L 1023 731 L 1023 730 L 1023 729 L 1023 728 L 1023 727 L 1023 726 L 1023 725 L 1023 724 L 1023 723 L 1023 722 L 1023 721 L 1023 720 L 1023 719 L 1023 718 L 1023 717 L 1023 716 L 1023 715 L 1023 714 L 1023 713 L 1023 712 L 1023 711 L 1023 710 L 1023 709 L 1023 708 L 1023 707 L 1023 706 L 1023 705 L 1023 704 L 1023 703 L 1023 702 L 1023 701 L 1023 700 L 1023 699 L 1023 698 L 1023 697 L 1023 696 L 1023 695 L 1023 694 L 1023 693 L 1023 692 L 1023 691 L 1023 690 L 1023 689 L 1023 688 L 1023 687 L 1023 686 L 1023 685 L 1023 684 L 1023 683 L 1023 682 L 1023 681 L 1023 680 L 1023 679 L 1023 678 L 1023 677 L 1023 676 L 1023 675 L 1023 674 L 1023 673 L 1023 672 L 1023 671 L 1023 670 L 1023 669 L 1023 668 L 1023 667 L 1023 666 L 1023 665 L 1023 664 L 1023 663 L 1023 662 L 1023 661 L 1023 660 L 1023 659 L 1023 658 L 1023 657 L 1023 656 L 1023 655 L 1023 654 L 1023 653 L 1023 652 L 1023 651 L 1023 650 L 1023 649 L 1023 648 L 1023 647 L 1023 646 L 1023 645 L 1023 644 L 1023 643 L 1023 642 L 1023 641 L 1023 640 L 1023 639 L 1023 638 L 1023 637 L 1023 636 L 1023 635 L 1023 634 L 1023 633 L 1023 632 L 1023 631 L 1023 630 L 1023 629 L 1023 628 L 1023 627 L 1023 626 L 1023 625 L 1023 624 L 1023 623 L 1023 622 L 1023 621 L 1023 620 L 1023 619 L 1023 618 L 1023 617 L 1023 616 L 1023 615 L 1023 614 L 1023 613 L 1023 612 L 1023 611 L 1023 610 L 1023 609 L 1023 608 L 1023 607 L 1023 606 L 1023 605 L 1023 604 L 1023 603 L 1023 602 L 1023 601 L 1023 600 L 1023 599 L 1023 598 L 1023 597 L 1023 596 L 1023 595 L 1023 594 L 1023 593 L 1023 592 L 1023 591 L 1023 590 L 1023 589 L 1023 588 L 1023 587 L 1023 586 L 1023 585 L 1023 584 L 1023 583 L 1023 582 L 1023 581 L 1023 580 L 1023 579 L 1023 578 L 1023 577 L 1023 576 L 1023 575 L 1023 574 L 1023 573 L 1023 572 L 1023 571 L 1023 570 L 1023 569 L 1023 568 L 1023 567 L 1023 566 L 1023 565 L 1023 564 L 1023 563 L 1023 562 L 1023 561 L 1023 560 L 1023 559 L 1023 558 L 1023 557 L 1023 556 L 1023 555 L 1023 554 L 1023 553 L 1023 552 L 1023 551 L 1023 550 L 1023 549 L 1023 548 L 1023 547 L 1023 546 L 1023 545 L 1023 544 L 1023 543 L 1023 542 L 1023 541 L 1023 540 L 1023 539 L 1023 538 L 1023 537 L 1023 536 L 1023 535 L 1023 534 L 1023 533 L 1023 532 L 1023 531 L 1023 530 L 1023 529 L 1023 528 L 1023 527 L 1023 526 L 1023 525 L 1023 524 L 1023 523 L 1023 522 L 1023 521 L 1023 520 L 1023 519 L 1023 518 L 1023 517 L 1023 516 L 1023 515 L 1023 514 L 1023 513 L 1023 512 L 1023 511 L 1023 510 L 1023 509 L 1023 508 L 1023 507 L 1023 506 L 1023 505 L 1023 504 L 1023 503 L 1023 502 L 1023 501 L 1023 500 L 1023 499 L 1023 498 L 1023 497 L 1023 496 L 1023 495 L 1023 494 L 1023 493 L 1023 492 L 1023 491 L 1023 490 L 1023 489 L 1023 488 L 1023 487 L 1023 486 L 1023 485 L 1023 484 L 1023 483 L 1023 482 L 1023 481 L 1023 480 L 1023 479 L 1023 478 L 1023 477 L 1023 476 L 1023 475 L 1023 474 L 1023 473 L 1023 472 L 1023 471 L 1023 470 L 1023 469 L 1023 468 L 1023 467 L 1023 466 L 1023 465 L 1023 464 L 1023 463 L 1023 462 L 1023 461 L 1023 460 L 1023 459 L 1023 458 L 1023 457 L 1023 456 L 1023 455 L 1023 454 L 1023 453 L 1023 452 L 1023 451 L 1023 450 L 1023 449 L 1023 448 L 1023 447 L 1023 446 L 1023 445 L 1023 444 L 1023 443 L 1023 442 L 1023 441 L 1023 440 L 1023 439 L 1023 438 L 1023 437 L 1023 436 L 1023 435 L 1023 434 L 1023 433 L 1023 432 L 1023 431 L 1023 430 L 1023 429 L 1023 428 L 1023 427 L 1023 426 L 1023 425 L 1023 424 L 1023 423 L 1023 422 L 1023 421 L 1023 420 L 1023 419 L 1023 418 L 1023 417 L 1023 416 L 1023 415 L 1023 414 L 1023 413 L 1023 412 L 1023 411 L 1023 410 L 1023 409 L 1023 408 L 1023 407 L 1023 406 L 1023 405 L 1023 404 L 1023 403 L 1023 402 L 1023 401 L 1023 400 L 1023 399 L 1023 398 L 1023 397 L 1023 396 L 1023 395 L 1023 394 L 1023 393 L 1023 392 L 1023 391 L 1023 390 L 1023 389 L 1023 388 L 1023 387 L 1023 386 L 1023 385 L 1023 384 L 1023 383 L 1023 382 L 1023 381 L 1023 380 L 1023 379 L 1023 378 L 1023 377 L 1023 376 L 1023 375 L 1023 374 L 1023 373 L 1023 372 L 1023 371 L 1023 370 L 1023 369 L 1023 368 L 1023 367 L 1023 366 L 1023 365 L 1023 364 L 1023 363 L 1023 362 L 1023 361 L 1023 360 L 1023 359 L 1023 358 L 1023 357 L 1023 356 L 1023 355 L 1023 354 L 1023 353 L 1023 352 L 1023 351 L 1023 350 L 1023 349 L 1023 348 L 1023 347 L 1023 346 L 1023 345 L 1023 344 L 1023 343 L 1023 342 L 1023 341 L 1023 340 L 1023 339 L 1023 338 L 1023 337 L 1023 336 L 1023 335 L 1023 334 L 1023 333 L 1023 332 L 1023 331 L 1023 330 L 1023 329 L 1023 328 L 1023 327 L 1023 326 L 1023 325 L 1023 324 L 1023 323 L 1023 322 L 1023 321 L 1023 320 L 1023 319 L 1023 318 L 1023 317 L 1023 316 L 1023 315 L 1023 314 L 1023 313 L 1023 312 L 1023 311 L 1023 310 L 1023 309 L 1023 308 L 1023 307 L 1023 306 L 1023 305 L 1023 304 L 1023 303 L 1023 302 L 1023 301 L 1023 300 L 1023 299 L 1023 298 L 1023 297 L 1023 296 L 1023 295 L 1023 294 L 1023 293 L 1023 292 L 1023 291 L 1023 290 L 1023 289 L 1023 288 L 1023 287 L 1023 286 L 1023 285 L 1023 284 L 1023 283 L 1023 282 L 1023 281 L 1023 280 L 1023 279 L 1023 278 L 1023 277 L 1023 276 L 1023 275 L 1023 274 L 1023 273 L 1023 272 L 1023 271 L 1023 270 L 1023 269 L 1023 268 L 1023 267 L 1023 266 L 1023 265 L 1023 264 L 1023 263 L 1023 262 L 1023 261 L 1023 260 L 1023 259 L 1023 258 L 1023 257 L 1023 256 L 1023 255 L 1023 254 L 1023 253 L 1023 252 L 1023 251 L 1023 250 L 1023 249 L 1023 248 L 1023 247 L 1023 246 L 1023 245 L 1023 244 L 1023 243 L 1023 242 L 1023 241 L 1023 240 L 1023 239 L 1023 238 L 1023 237 L 1023 236 L 1023 235 L 1023 234 L 1023 233 L 1023 232 L 1023 231 L 1023 230 L 1023 229 L 1023 228 L 1023 227 L 1023 226 L 1023 225 L 1023 224 L 1023 223 L 1023 222 L 1023 221 L 1023 220 L 1023 219 L 1023 218 L 1023 217 L 1023 216 L 1023 215 L 1023 214 L 1023 213 L 1023 212 L 1023 211 L 1023 210 L 1023 209 L 1023 208 L 1023 207 L 1023 206 L 1023 205 L 1023 204 L 1023 203 L 1023 202 L 1023 201 L 1023 200 L 1023 199 L 1023 198 L 1023 197 L 1023 196 L 1023 195 L 1023 194 L 1023 193 L 1023 192 L 1023 191 L 1023 190 L 1023 189 L 1023 188 L 1023 187 L 1023 186 L 1023 185 L 1023 184 L 1023 183 L 1023 182 L 1023 181 L 1023 180 L 1023 179 L 1023 178 L 1023 177 L 1023 176 L 1023 175 L 1023 174 L 1023 173 L 1023 172 L 1023 171 L 1023 170 L 1023 169 L 1023 168 L 1023 167 L 1023 166 L 1023 165 L 1023 164 L 1023 163 L 1023 162 L 1023 161 L 1023 160 L 1023 159 L 1023 158 L 1023 157 L 1023 156 L 1023 155 L 1023 154 L 1023 153 L 1023 152 L 1023 151 L 1023 150 L 1023 149 L 1023 148 L 1023 147 L 1023 146 L 1023 145 L 1023 144 L 1023 143 L 1023 142 L 1023 141 L 1023 140 L 1023 139 L 1023 138 L 1023 137 L 1023 136 L 1023 135 L 1023 134 L 1023 133 L 1023 132 L 1023 131 L 1023 130 L 1023 129 L 1023 128 L 1023 127 L 1023 126 L 1023 125 L 1023 124 L 1023 123 L 1023 122 L 1023 121 L 1023 120 L 1023 119 L 1023 118 L 1023 117 L 1023 116 L 1023 115 L 1023 114 L 1023 113 L 1023 112 L 1023 111 L 1023 110 L 1023 109 L 1023 108 L 1023 107 L 1023 106 L 1023 105 L 1023 104 L 1023 103 L 1023 102 L 1023 101 L 1023 100 L 1023 99 L 1023 98 L 1023 97 L 1023 96 L 1023 95 L 1023 94 L 1023 93 L 1023 92 L 1023 91 L 1023 90 L 1023 89 L 1023 88 L 1023 87 L 1023 86 L 1023 85 L 1023 84 L 1023 83 L 1023 82 L 1023 81 L 1023 80 L 1023 79 L 1023 78 L 1023 77 L 1023 76 L 1023 75 L 1023 74 L 1023 73 L 1023 72 L 1023 71 L 1023 70 L 1023 69 L 1023 68 L 1023 67 L 1023 66 L 1023 65 L 1023 64 L 1023 63 L 1023 62 L 1023 61 L 1023 60 L 1023 59 L 1023 58 L 1023 57 L 1023 56 L 1023 55 L 1023 54 L 1023 53 L 1023 52 L 1023 51 L 1023 50 L 1023 49 L 1023 48 L 1023 47 L 1023 46 L 1023 45 L 1023 44 L 1023 43 L 1023 42 L 1023 41 L 1023 40 L 1023 39 L 1023 38 L 1023 37 L 1023 36 L 1023 35 L 1023 34 L 1023 33 L 1023 32 L 1023 31 L 1023 30 L 1023 29 L 1023 28 L 1023 27 L 1023 26 L 1023 25 L 1023 24 L 1023 23 L 1023 22 L 1023 21 L 1023 20 L 1023 19 L 1023 18 L 1023 17 L 1023 16 L 1023 15 L 1023 14 L 1023 13 L 1023 12 L 1023 11 L 1023 10 L 1023 9 L 1023 8 L 1023 7 L 1023 6 L 1023 5 L 1023 4 L 1023 3 L 1023 2 L 1023 1 L 1023 0 L 1022 0 L 1021 0 L 1020 0 L 1019 0 L 1018 0 L 1017 0 L 1016 0 L 1015 0 L 1014 0 L 1013 0 L 1012 0 L 1011 0 L 1010 0 L 1009 0 L 1008 0 L 1007 0 L 1006 0 L 1005 0 L 1004 0 L 1003 0 L 1002 0 L 1001 0 L 1000 0 L 999 0 L 998 0 L 997 0 L 996 0 L 995 0 L 994 0 L 993 0 L 992 0 L 991 0 L 990 0 L 989 0 L 988 0 L 987 0 L 986 0 L 985 0 L 984 0 L 983 0 L 982 0 L 981 0 L 980 0 L 979 0 L 978 0 L 977 0 L 976 0 L 975 0 L 974 0 L 973 0 L 972 0 L 971 0 L 970 0 L 969 0 L 968 0 L 967 0 L 966 0 L 965 0 L 964 0 L 963 0 L 962 0 L 961 0 L 960 0 L 959 0 L 958 0 L 957 0 L 956 0 L 955 0 L 954 0 L 953 0 L 952 0 L 951 0 L 950 0 L 949 0 L 948 0 L 947 0 L 946 0 L 945 0 L 944 0 L 943 0 L 942 0 L 941 0 L 940 0 L 939 0 L 938 0 L 937 0 L 936 0 L 935 0 L 934 0 L 933 0 L 932 0 L 931 0 L 930 0 L 929 0 L 928 0 L 927 0 L 926 0 L 925 0 L 924 0 L 923 0 L 922 0 L 921 0 L 920 0 L 919 0 L 918 0 L 917 0 L 916 0 L 915 0 L 914 0 L 913 0 L 912 0 L 911 0 L 910 0 L 909 0 L 908 0 L 907 0 L 906 0 L 905 0 L 904 0 L 903 0 L 902 0 L 901 0 L 900 0 L 899 0 L 898 0 L 897 0 L 896 0 L 895 0 L 894 0 L 893 0 L 892 0 L 891 0 L 890 0 L 889 0 L 888 0 L 887 0 L 886 0 L 885 0 L 884 0 L 883 0 L 882 0 L 881 0 L 880 0 L 879 0 L 878 0 L 877 0 L 876 0 L 875 0 L 874 0 L 873 0 L 872 0 L 871 0 L 870 0 L 869 0 L 868 0 L 867 0 L 866 0 L 865 0 L 864 0 L 863 0 L 862 0 L 861 0 L 860 0 L 859 0 L 858 0 L 857 0 L 856 0 L 855 0 L 854 0 L 853 0 L 852 0 L 851 0 L 850 0 L 849 0 L 848 0 L 847 0 L 846 0 L 845 0 L 844 0 L 843 0 L 842 0 L 841 0 L 840 0 L 839 0 L 838 0 L 837 0 L 836 0 L 835 0 L 834 0 L 833 0 L 832 0 L 831 0 L 830 0 L 829 0 L 828 0 L 827 0 L 826 0 L 825 0 L 824 0 L 823 0 L 822 0 L 821 0 L 820 0 L 819 0 L 818 0 L 817 0 L 816 0 L 815 0 L 814 0 L 813 0 L 812 0 L 811 0 L 810 0 L 809 0 L 808 0 L 807 0 L 806 0 L 805 0 L 804 0 L 803 0 L 802 0 L 801 0 L 800 0 L 799 0 L 798 0 L 797 0 L 796 0 L 795 0 L 794 0 L 793 0 L 792 0 L 791 0 L 790 0 L 789 0 L 788 0 L 787 0 L 786 0 L 785 0 L 784 0 L 783 0 L 782 0 L 781 0 L 780 0 L 779 0 L 778 0 L 777 0 L 776 0 L 775 0 L 774 0 L 773 0 L 772 0 L 771 0 L 770 0 L 769 0 L 768 0 L 767 0 L 766 0 L 765 0 L 764 0 L 763 0 L 762 0 L 761 0 L 760 0 L 759 0 L 758 0 L 757 0 L 756 0 L 755 0 L 754 0 L 753 0 L 752 0 L 751 0 L 750 0 L 749 0 L 748 0 L 747 0 L 746 0 L 745 0 L 744 0 L 743 0 L 742 0 L 741 0 L 740 0 L 739 0 L 738 0 L 737 0 L 736 0 L 735 0 L 734 0 L 733 0 L 732 0 L 731 0 L 730 0 L 729 0 L 728 0 L 727 0 L 726 0 L 725 0 L 724 0 L 723 0 L 722 0 L 721 0 L 720 0 L 719 0 L 718 0 L 717 0 L 716 0 L 715 0 L 714 0 L 713 0 L 712 0 L 711 0 L 710 0 L 709 0 L 708 0 L 707 0 L 706 0 L 705 0 L 704 0 L 703 0 L 702 0 L 701 0 L 700 0 L 699 0 L 698 0 L 697 0 L 696 0 L 695 0 L 694 0 L 693 0 L 692 0 L 691 0 L 690 0 L 689 0 L 688 0 L 687 0 L 686 0 L 685 0 L 684 0 L 683 0 L 682 0 L 681 0 L 680 0 L 679 0 L 678 0 L 677 0 L 676 0 L 675 0 L 674 0 L 673 0 L 672 0 L 671 0 L 670 0 L 669 0 L 668 0 L 667 0 L 666 0 L 665 0 L 664 0 L 663 0 L 662 0 L 661 0 L 660 0 L 659 0 L 658 0 L 657 0 L 656 0 L 655 0 L 654 0 L 653 0 L 652 0 L 651 0 L 650 0 L 649 0 L 648 0 L 647 0 L 646 0 L 645 0 L 644 0 L 643 0 L 642 0 L 641 0 L 640 0 L 639 0 L 638 0 L 637 0 L 636 0 L 635 0 L 634 0 L 633 0 L 632 0 L 631 0 L 630 0 L 629 0 L 628 0 L 627 0 L 626 0 L 625 0 L 624 0 L 623 0 L 622 0 L 621 0 L 620 0 L 619 0 L 618 0 L 617 0 L 616 0 L 615 0 L 614 0 L 613 0 L 612 0 L 611 0 L 610 0 L 609 0 L 608 0 L 607 0 L 606 0 L 605 0 L 604 0 L 603 0 L 602 0 L 601 0 L 600 0 L 599 0 L 598 0 L 597 0 L 596 0 L 595 0 L 594 0 L 593 0 L 592 0 L 591 0 L 590 0 L 589 0 L 588 0 L 587 0 L 586 0 L 585 0 L 584 0 L 583 0 L 582 0 L 581 0 L 580 0 L 579 0 L 578 0 L 577 0 L 576 0 L 575 0 L 574 0 L 573 0 L 572 0 L 571 0 L 570 0 L 569 0 L 568 0 L 567 0 L 566 0 L 565 0 L 564 0 L 563 0 L 562 0 L 561 0 L 560 0 L 559 0 L 558 0 L 557 0 L 556 0 L 555 0 L 554 0 L 553 0 L 552 0 L 551 0 L 550 0 L 549 0 L 548 0 L 547 0 L 546 0 L 545 0 L 544 0 L 543 0 L 542 0 L 541 0 L 540 0 L 539 0 L 538 0 L 537 0 L 536 0 L 535 0 L 534 0 L 533 0 L 532 0 L 531 0 L 530 0 L 529 0 L 528 0 L 527 0 L 526 0 L 525 0 L 524 0 L 523 0 L 522 0 L 521 0 L 520 0 L 519 0 L 518 0 L 517 0 L 516 0 L 515 0 L 514 0 L 513 0 L 512 0 L 511 0 L 510 0 L 509 0 L 508 0 L 507 0 L 506 0 L 505 0 L 504 0 L 503 0 L 502 0 L 501 0 L 500 0 L 499 0 L 498 0 L 497 0 L 496 0 L 495 0 L 494 0 L 493 0 L 492 0 L 491 0 L 490 0 L 489 0 L 488 0 L 487 0 L 486 0 L 485 0 L 484 0 L 483 0 L 482 0 L 481 0 L 480 0 L 479 0 L 478 0 L 477 0 L 476 0 L 475 0 L 474 0 L 473 0 L 472 0 L 471 0 L 470 0 L 469 0 L 468 0 L 467 0 L 466 0 L 465 0 L 464 0 L 463 0 L 462 0 L 461 0 L 460 0 L 459 0 L 458 0 L 457 0 L 456 0 L 455 0 L 454 0 L 453 0 L 452 0 L 451 0 L 450 0 L 449 0 L 448 0 L 447 0 L 446 0 L 445 0 L 444 0 L 443 0 L 442 0 L 441 0 L 440 0 L 439 0 L 438 0 L 437 0 L 436 0 L 435 0 L 434 0 L 433 0 L 432 0 L 431 0 L 430 0 L 429 0 L 428 0 L 427 0 L 426 0 L 425 0 L 424 0 L 423 0 L 422 0 L 421 0 L 420 0 L 419 0 L 418 0 L 417 0 L 416 0 L 415 0 L 414 0 L 413 0 L 412 0 L 411 0 L 410 0 L 409 0 L 408 0 L 407 0 L 406 0 L 405 0 L 404 0 L 403 0 L 402 0 L 401 0 L 400 0 L 399 0 L 398 0 L 397 0 L 396 0 L 395 0 L 394 0 L 393 0 L 392 0 L 391 0 L 390 0 L 389 0 L 388 0 L 387 0 L 386 0 L 385 0 L 384 0 L 383 0 L 382 0 L 381 0 L 380 0 L 379 0 L 378 0 L 377 0 L 376 0 L 375 0 L 374 0 L 373 0 L 372 0 L 371 0 L 370 0 L 369 0 L 368 0 L 367 0 L 366 0 L 365 0 L 364 0 L 363 0 L 362 0 L 361 0 L 360 0 L 359 0 L 358 0 L 357 0 L 356 0 L 355 0 L 354 0 L 353 0 L 352 0 L 351 0 L 350 0 L 349 0 L 348 0 L 347 0 L 346 0 L 345 0 L 344 0 L 343 0 L 342 0 L 341 0 L 340 0 L 339 0 L 338 0 L 337 0 L 336 0 L 335 0 L 334 0 L 333 0 L 332 0 L 331 0 L 330 0 L 329 0 L 328 0 L 327 0 L 326 0 L 325 0 L 324 0 L 323 0 L 322 0 L 321 0 L 320 0 L 319 0 L 318 0 L 317 0 L 316 0 L 315 0 L 314 0 L 313 0 L 312 0 L 311 0 L 310 0 L 309 0 L 308 0 L 307 0 L 306 0 L 305 0 L 304 0 L 303 0 L 302 0 L 301 0 L 300 0 L 299 0 L 298 0 L 297 0 L 296 0 L 295 0 L 294 0 L 293 0 L 292 0 L 291 0 L 290 0 L 289 0 L 288 0 L 287 0 L 286 0 L 285 0 L 284 0 L 283 0 L 282 0 L 281 0 L 280 0 L 279 0 L 278 0 L 277 0 L 276 0 L 275 0 L 274 0 L 273 0 L 272 0 L 271 0 L 270 0 L 269 0 L 268 0 L 267 0 L 266 0 L 265 0 L 264 0 L 263 0 L 262 0 L 261 0 L 260 0 L 259 0 L 258 0 L 257 0 L 256 0 L 255 0 L 254 0 L 253 0 L 252 0 L 251 0 L 250 0 L 249 0 L 248 0 L 247 0 L 246 0 L 245 0 L 244 0 L 243 0 L 242 0 L 241 0 L 240 0 L 239 0 L 238 0 L 237 0 L 236 0 L 235 0 L 234 0 L 233 0 L 232 0 L 231 0 L 230 0 L 229 0 L 228 0 L 227 0 L 226 0 L 225 0 L 224 0 L 223 0 L 222 0 L 221 0 L 220 0 L 219 0 L 218 0 L 217 0 L 216 0 L 215 0 L 214 0 L 213 0 L 212 0 L 211 0 L 210 0 L 209 0 L 208 0 L 207 0 L 206 0 L 205 0 L 204 0 L 203 0 L 202 0 L 201 0 L 200 0 L 199 0 L 198 0 L 197 0 L 196 0 L 195 0 L 194 0 L 193 0 L 192 0 L 191 0 L 190 0 L 189 0 L 188 0 L 187 0 L 186 0 L 185 0 L 184 0 L 183 0 L 182 0 L 181 0 L 180 0 L 179 0 L 178 0 L 177 0 L 176 0 L 175 0 L 174 0 L 173 0 L 172 0 L 171 0 L 170 0 L 169 0 L 168 0 L 167 0 L 166 0 L 165 0 L 164 0 L 163 0 L 162 0 L 161 0 L 160 0 L 159 0 L 158 0 L 157 0 L 156 0 L 155 0 L 154 0 L 153 0 L 152 0 L 151 0 L 150 0 L 149 0 L 148 0 L 147 0 L 146 0 L 145 0 L 144 0 L 143 0 L 142 0 L 141 0 L 140 0 L 139 0 L 138 0 L 137 0 L 136 0 L 135 0 L 134 0 L 133 0 L 132 0 L 131 0 L 130 0 L 129 0 L 128 0 L 127 0 L 126 0 L 125 0 L 124 0 L 123 0 L 122 0 L 121 0 L 120 0 L 119 0 L 118 0 L 117 0 L 116 0 L 115 0 L 114 0 L 113 0 L 112 0 L 111 0 L 110 0 L 109 0 L 108 0 L 107 0 L 106 0 L 105 0 L 104 0 L 103 0 L 102 0 L 101 0 L 100 0 L 99 0 L 98 0 L 97 0 L 96 0 L 95 0 L 94 0 L 93 0 L 92 0 L 91 0 L 90 0 L 89 0 L 88 0 L 87 0 L 86 0 L 85 0 L 84 0 L 83 0 L 82 0 L 81 0 L 80 0 L 79 0 L 78 0 L 77 0 L 76 0 L 75 0 L 74 0 L 73 0 L 72 0 L 71 0 L 70 0 L 69 0 L 68 0 L 67 0 L 66 0 L 65 0 L 64 0 L 63 0 L 62 0 L 61 0 L 60 0 L 59 0 L 58 0 L 57 0 L 56 0 L 55 0 L 54 0 L 53 0 L 52 0 L 51 0 L 50 0 L 49 0 L 48 0 L 47 0 L 46 0 L 45 0 L 44 0 L 43 0 L 42 0 L 41 0 L 40 0 L 39 0 L 38 0 L 37 0 L 36 0 L 35 0 L 34 0 L 33 0 L 32 0 L 31 0 L 30 0 L 29 0 L 28 0 L 27 0 L 26 0 L 25 0 L 24 0 L 23 0 L 22 0 L 21 0 L 20 0 L 19 0 L 18 0 L 17 0 L 16 0 L 15 0 L 14 0 L 13 0 L 12 0 L 11 0 L 10 0 L 9 0 L 8 0 L 7 0 L 6 0 L 5 0 L 4 0 L 3 0 L 2 0 L 1 0 Z" />
  </g>
</svg>